Coordinates
version=1
nRows=32
nColumns=12
inDegrees=yes

Units are S.I. units (second, meters, Newtons, ...)
Angles are in degrees

endheader
time	SC_y	SC_z	SC_x	AC_y	AC_z	AC_x	GH_y	GH_z	GH_yy	EL_x	PS_y
       0.0              -51.49          17.06          49.58          30.35        -0.3965         -13.42         -116.8          81.36         -18.72          129.8          138.0
   0.01191              -51.49          17.06          49.58          30.36        -0.3979         -13.42         -116.8          81.36         -18.72          129.8          138.0
   0.02382              -51.48          17.06          49.59          30.36        -0.3994         -13.41         -116.8          81.36         -18.72          129.8          138.0
   0.03573              -51.47          17.06          49.59          30.36         -0.401         -13.41         -116.8          81.36         -18.72          129.8          138.0
   0.04764              -51.47          17.06           49.6          30.36        -0.4027          -13.4         -116.8          81.35         -18.71          129.8          138.0
   0.05955              -51.46          17.05          49.61          30.37        -0.4044          -13.4         -116.8          81.35         -18.71          129.8          138.0
   0.07146              -51.45          17.05          49.61          30.37        -0.4064         -13.39         -116.8          81.34         -18.71          129.8          138.0
   0.08337              -51.44          17.05          49.62          30.37        -0.4084         -13.39         -116.7          81.34         -18.71          129.8          138.0
   0.09528              -51.43          17.05          49.63          30.38        -0.4106         -13.38         -116.7          81.34         -18.71          129.8          138.0
    0.1072              -51.42          17.05          49.64          30.38        -0.4129         -13.37         -116.7          81.33         -18.71          129.8          138.0
    0.1191              -51.41          17.05          49.65          30.39        -0.4155         -13.37         -116.7          81.33         -18.71          129.8          138.0
     0.131               -51.4          17.05          49.65          30.39        -0.4182         -13.36         -116.7          81.32          -18.7          129.8          138.0
    0.1429              -51.39          17.04          49.67          30.39        -0.4211         -13.35         -116.7          81.32          -18.7          129.8          138.0
    0.1548              -51.38          17.04          49.68           30.4        -0.4243         -13.34         -116.7          81.31          -18.7          129.9          138.0
    0.1667              -51.36          17.04          49.69          30.41        -0.4277         -13.33         -116.7           81.3          -18.7          129.9          138.0
    0.1786              -51.35          17.04           49.7          30.41        -0.4314         -13.32         -116.7          81.29         -18.69          129.9          138.0
    0.1906              -51.33          17.04          49.72          30.42        -0.4354         -13.31         -116.7          81.29         -18.69          129.9          138.0
    0.2025              -51.31          17.03          49.73          30.43        -0.4398          -13.3         -116.7          81.28         -18.69          129.9          138.0
    0.2144              -51.29          17.03          49.75          30.43        -0.4446         -13.28         -116.6          81.27         -18.68          129.9          138.0
    0.2263              -51.27          17.03          49.77          30.44        -0.4498         -13.27         -116.6          81.26         -18.68          129.9          138.0
    0.2382              -51.24          17.03          49.79          30.45        -0.4556         -13.25         -116.6          81.25         -18.68          129.9          138.0
    0.2501              -51.22          17.02          49.81          30.46        -0.4619         -13.23         -116.6          81.23         -18.67          129.9          138.0
     0.262              -51.19          17.02          49.83          30.47         -0.469         -13.21         -116.6          81.22         -18.67          129.9          138.0
    0.2739              -51.15          17.01          49.86          30.49        -0.4767         -13.19         -116.6           81.2         -18.66          129.9          138.0
    0.2858              -51.12          17.01          49.89           30.5        -0.4853         -13.17         -116.5          81.19         -18.65          129.9          138.0
    0.2977              -51.08           17.0          49.93          30.52         -0.495         -13.14         -116.5          81.17         -18.65          129.9          138.0
    0.3097              -51.03           17.0          49.96          30.53        -0.5058         -13.11         -116.5          81.15         -18.64          129.9          138.1
    0.3216              -50.98          16.99          50.01          30.55        -0.5179         -13.08         -116.4          81.12         -18.63          129.9          138.1
    0.3335              -50.92          16.99          50.05          30.58        -0.5316         -13.04         -116.4          81.09         -18.62          129.9          138.1
    0.3454              -50.86          16.98          50.11           30.6        -0.5472         -12.99         -116.4          81.06         -18.61          129.9          138.1
    0.3573              -50.78          16.97          50.17          30.63        -0.5649         -12.94         -116.3          81.03          -18.6          129.9          138.1
    0.3692               -50.7          16.96          50.24          30.66        -0.5853         -12.88         -116.3          80.99         -18.58          129.9          138.1
